<svg xmlns="http://www.w3.org/2000/svg" width="64" height="64" viewBox="0 0 24 24" fill="none">
    <!-- Cérebro Coral -->
    <path d="M9.5 5A2.5 2.5 0 0 1 12 7.5v12a2.5 2.5 0 0 1-4.96.44 2.5 2.5 0 0 1-2.96-3.08 3 3 0 0 1-.34-5.58 2.5 2.5 0 0 1 1.32-4.24 2.5 2.5 0 0 1 1.98-3A2.5 2.5 0 0 1 9.5 5Z" fill="#FBF3E7" stroke="#F4694A" stroke-width="2" stroke-linecap="round" stroke-linejoin="round"/>
    <path d="M14.5 5A2.5 2.5 0 0 0 12 7.5v12a2.5 2.5 0 0 0 4.96.44 2.5 2.5 0 0 0 2.96-3.08 3 3 0 0 0 .34-5.58 2.5 2.5 0 0 0-1.32-4.24 2.5 2.5 0 0 0-1.98-3A2.5 2.5 0 0 0 14.5 5Z" fill="#FBF3E7" stroke="#F4694A" stroke-width="2" stroke-linecap="round" stroke-linejoin="round"/>
    <!-- Capelo Navy -->
    <path d="M12 1L22 5L12 9L2 5L12 1Z" fill="#1B3A5C" stroke="#1B3A5C" stroke-width="1.5" stroke-linejoin="round"/>
    <path d="M6 6.5V10.5C6 12 8.5 13.5 12 13.5C15.5 13.5 18 12 18 10.5V6.5" stroke="#1B3A5C" stroke-width="1.5" stroke-linecap="round"/>
    <!-- Borla Amarela -->
    <line x1="21" y1="5" x2="21" y2="11" stroke="#F2B84B" stroke-width="1.5" stroke-linecap="round"/>
    <circle cx="21" cy="12" r="1.5" fill="#F2B84B"/>
</svg>
